<svg xmlns="http://www.w3.org/2000/svg" width="181.95" height="175.233"><defs><clipPath id="a"><path d="M0 595.28h841.89v-595.28h-841.89v595.28z"/></clipPath></defs><g clip-path="url(#a)"><path d="M137.767 91.902c-3.516 0-6.323 2.863-6.323 6.322 0 3.453 2.807 6.267 6.323 6.267 3.454 0 6.264-2.814 6.264-6.267 0-3.459-2.81-6.322-6.264-6.322m0 19.474c-7.279 0-13.214-5.878-13.214-13.153 0-7.283 5.935-13.162 13.214-13.162 7.226 0 13.154 5.879 13.154 13.162 0 7.275-5.929 13.153-13.154 13.153" fill="#8c3ea4"/><path d="M90.396 145.391h-6.847v-23.655h6.847v23.655z" fill="#b5dc20"/><path d="M100.318 145.391h-6.845v-23.655h6.845v23.655z" fill="#b5dc20"/><path d="M122.118 41.448l6.735-6.74-4.885-4.831-6.686 6.736-.012-.019-4.886 4.837.011.017-.011.011 8.683 8.657-6.675 6.677 4.836 4.885 11.586-11.583-8.696-8.647z" fill="#fcca20"/><path d="M45.552 98.109l3.215 5.569h-6.492l3.277-5.569zm-.002-13.047l-14.57 25.16h29.09l-14.52-25.16z" fill="#66ccda"/><path d="M75.858 37.246l-4.838-4.885-8.375 8.373-8.373-8.373-4.837 4.885 8.378 8.322-8.378 8.377 4.837 4.888 8.373-8.378 8.375 8.378 4.838-4.888-8.352-8.377 8.352-8.322z" fill="#f2542d"/></g></svg>